<svg xmlns="http://www.w3.org/2000/svg" viewBox="0 0 48 48" id="House">
  <path d="M24 0A24 24 0 0 0 0 24a24 24 0 0 0 24 24 24 24 0 0 0 24-24A24 24 0 0 0 24 0zm.006 9.51a3.505 3.505 0 0 1 3.498 3.498c0 1.926-1.572 3.5-3.498 3.5a3.508 3.508 0 0 1-3.5-3.5 3.507 3.507 0 0 1 3.5-3.498zm0 1a2.491 2.491 0 0 0-2.5 2.498c0 1.386 1.114 2.5 2.5 2.5a2.491 2.491 0 0 0 2.498-2.5 2.49 2.49 0 0 0-2.498-2.498zm-7.092 4.654a.51.51 0 0 1 .469.156l8.465 8.81a.52.52 0 0 1 .023.743.52.52 0 0 1-.74-.055l-1.125-1.156v10.34h1v1H8.012v-1h1.998v-10.34l-1.125 1.156a.52.52 0 0 1-.74.055.52.52 0 0 1 .023-.742l1.842-1.906v-3.717a.515.515 0 0 1 .344-.5.41.41 0 0 1 .156 0h2c.261 0 .5.238.5.5v.592l3.654-3.78a.508.508 0 0 1 .25-.156zm.094 1.219-4.06 4.185a.502.502 0 0 1-.188.188L11.01 22.6v11.402h3.998v-6.498a.515.515 0 0 1 .344-.5.41.41 0 0 1 .156 0h3c.262 0 .5.238.5.5v6.498h3.998V22.6l-5.998-6.217zm19.494.625a3.002 3.002 0 0 1 2.998 2.998v7.498c0 1.478-1.088 2.692-2.498 2.935v3.563H40v1h-4.998v-1h1v-3.563c-1.41-.243-2.5-1.457-2.5-2.935 0 2.034-1.53 3.72-3.498 3.967v2.531h1.998v1h-3.998v-1h1v-2.531a4.005 4.005 0 0 1-3.498-3.967c0-2.204 1.794-4.03 3.998-4.03s3.998 1.826 3.998 4.03v-7.498a3.004 3.004 0 0 1 3-2.998zm0 1c-1.116 0-2 .882-2 1.998V21.1a.512.512 0 0 1 .5-.375.505.505 0 0 1 .344.156l.656.656v-1.5h1v1.5l.654-.656a.527.527 0 0 1 .344-.156.516.516 0 0 1 .5.375v-1.094a1.982 1.982 0 0 0-1.998-1.998zm-25.492.998v2.187l1-1.062v-1.125h-1zm5.998 0c1.374 0 2.5 1.126 2.5 2.5s-1.126 2.5-2.5 2.5a2.508 2.508 0 0 1-2.5-2.5c0-1.374 1.125-2.5 2.5-2.5zm0 1c-.834 0-1.5.666-1.5 1.5s.666 1.5 1.5 1.5 1.5-.666 1.5-1.5-.666-1.5-1.5-1.5zM38.5 21.35a.503.503 0 0 1-.156.25l-1.342 1.343a.501.501 0 0 1 0 .063v1.53l.654-.655a.527.527 0 0 1 .344-.156.516.516 0 0 1 .5.375v-2.75zm-3.998.03v2.718a.512.512 0 0 1 .5-.375.505.505 0 0 1 .344.156l.656.656v-1.562a.502.502 0 0 1-.031-.06L34.658 21.6a.505.505 0 0 1-.156-.22zm3.998 2.97a.503.503 0 0 1-.156.25l-1.342 1.341a.501.501 0 0 1 0 .063v1.531l.654-.656a.527.527 0 0 1 .344-.156.516.516 0 0 1 .5.375V24.35zm-3.998.029v2.717a.51.51 0 0 1 .5-.373c.129.005.255.06.344.154l.656.656v-1.56a.526.526 0 0 1-.031-.063l-1.313-1.312a.505.505 0 0 1-.156-.22zm-4.998.094c-1.664 0-3 1.367-3 3.03 0 1.49 1.084 2.695 2.5 2.936v-1.25l-1.844-1.841c-.306-.27-.063-.886.344-.875a.505.505 0 0 1 .344.156l1.156 1.156v-.781h1v1.781l.656-.656a.5.5 0 0 1 .281-.156c.429-.073.737.594.405.875l-1.342 1.341v.25c1.416-.241 2.498-1.447 2.498-2.935 0-1.664-1.334-3.031-2.998-3.031zm8.996 2.875a.503.503 0 0 1-.156.25l-1.342 1.343a.501.501 0 0 1 0 .063v.435a1.982 1.982 0 0 0 1.498-1.935v-.156zm-3.998.03v.124c0 .942.633 1.718 1.5 1.937v-.468a.46.46 0 0 1-.031-.063l-1.313-1.31a.505.505 0 0 1-.156-.22zm-18.494.626v5.998h2v-5.998h-2zm9.996 5.998h1V35h-1v-.998zm6.998 0h1V35h-1v-.998zM19.008 36h.998v1h-.998v-1zm1.998 0h1v1h-1v-1zm2 0h7.998v1h-7.998v-1z" fill="#d85b53" class="color000000 svgShape"></path>
</svg>
